<svg width="66" height="928" viewBox="0 0 66 928" fill="none" xmlns="http://www.w3.org/2000/svg">
<mask id="path-1-inside-1_4542_7059" fill="white">
<path d="M0 0H66V46H0V0Z"/>
</mask>
<path d="M0 0H66V46H0V0Z" fill="#F5F7F9"/>
<rect x="23.4167" y="13.4167" width="19.1667" height="19.1667" rx="2.08333" fill="white" stroke="#9EA8BA" stroke-width="0.833333"/>
<path d="M0 0H66H0ZM66 47H0V45H66V47ZM0 46V0V46ZM66 0V46V0Z" fill="#E5E8EB" mask="url(#path-1-inside-1_4542_7059)"/>
<mask id="path-4-inside-2_4542_7059" fill="white">
<path d="M0 46H66V144H0V46Z"/>
</mask>
<path d="M0 46H66V144H0V46Z" fill="white"/>
<rect x="23.4167" y="85.4167" width="19.1667" height="19.1667" rx="2.08333" fill="white" stroke="#9EA8BA" stroke-width="0.833333"/>
<path d="M0 46H66H0ZM66 145H0V143H66V145ZM0 144V46V144ZM66 46V144V46Z" fill="#E5E8EB" mask="url(#path-4-inside-2_4542_7059)"/>
<mask id="path-7-inside-3_4542_7059" fill="white">
<path d="M0 144H66V242H0V144Z"/>
</mask>
<path d="M0 144H66V242H0V144Z" fill="white"/>
<rect x="23.4167" y="183.417" width="19.1667" height="19.1667" rx="2.08333" fill="white" stroke="#9EA8BA" stroke-width="0.833333"/>
<path d="M0 144H66H0ZM66 243H0V241H66V243ZM0 242V144V242ZM66 144V242V144Z" fill="#E5E8EB" mask="url(#path-7-inside-3_4542_7059)"/>
<mask id="path-10-inside-4_4542_7059" fill="white">
<path d="M0 242H66V340H0V242Z"/>
</mask>
<path d="M0 242H66V340H0V242Z" fill="white"/>
<rect x="23.4167" y="281.417" width="19.1667" height="19.1667" rx="2.08333" fill="white" stroke="#9EA8BA" stroke-width="0.833333"/>
<path d="M0 242H66H0ZM66 341H0V339H66V341ZM0 340V242V340ZM66 242V340V242Z" fill="#E5E8EB" mask="url(#path-10-inside-4_4542_7059)"/>
<mask id="path-13-inside-5_4542_7059" fill="white">
<path d="M0 340H66V438H0V340Z"/>
</mask>
<path d="M0 340H66V438H0V340Z" fill="white"/>
<rect x="23.4167" y="379.417" width="19.1667" height="19.1667" rx="2.08333" fill="white" stroke="#9EA8BA" stroke-width="0.833333"/>
<path d="M0 340H66H0ZM66 439H0V437H66V439ZM0 438V340V438ZM66 340V438V340Z" fill="#E5E8EB" mask="url(#path-13-inside-5_4542_7059)"/>
<mask id="path-16-inside-6_4542_7059" fill="white">
<path d="M0 438H66V536H0V438Z"/>
</mask>
<path d="M0 438H66V536H0V438Z" fill="white"/>
<rect x="23.4167" y="477.417" width="19.1667" height="19.1667" rx="2.08333" fill="white" stroke="#9EA8BA" stroke-width="0.833333"/>
<path d="M0 438H66H0ZM66 537H0V535H66V537ZM0 536V438V536ZM66 438V536V438Z" fill="#E5E8EB" mask="url(#path-16-inside-6_4542_7059)"/>
<mask id="path-19-inside-7_4542_7059" fill="white">
<path d="M0 536H66V634H0V536Z"/>
</mask>
<path d="M0 536H66V634H0V536Z" fill="white"/>
<rect x="23.4167" y="575.417" width="19.1667" height="19.1667" rx="2.08333" fill="white" stroke="#9EA8BA" stroke-width="0.833333"/>
<path d="M0 536H66H0ZM66 635H0V633H66V635ZM0 634V536V634ZM66 536V634V536Z" fill="#E5E8EB" mask="url(#path-19-inside-7_4542_7059)"/>
<mask id="path-22-inside-8_4542_7059" fill="white">
<path d="M0 634H66V732H0V634Z"/>
</mask>
<path d="M0 634H66V732H0V634Z" fill="white"/>
<rect x="23.4167" y="673.417" width="19.1667" height="19.1667" rx="2.08333" fill="white" stroke="#9EA8BA" stroke-width="0.833333"/>
<path d="M0 634H66H0ZM66 733H0V731H66V733ZM0 732V634V732ZM66 634V732V634Z" fill="#E5E8EB" mask="url(#path-22-inside-8_4542_7059)"/>
<mask id="path-25-inside-9_4542_7059" fill="white">
<path d="M0 732H66V830H0V732Z"/>
</mask>
<path d="M0 732H66V830H0V732Z" fill="white"/>
<rect x="23.4167" y="771.417" width="19.1667" height="19.1667" rx="2.08333" fill="white" stroke="#9EA8BA" stroke-width="0.833333"/>
<path d="M0 732H66H0ZM66 831H0V829H66V831ZM0 830V732V830ZM66 732V830V732Z" fill="#E5E8EB" mask="url(#path-25-inside-9_4542_7059)"/>
<mask id="path-28-inside-10_4542_7059" fill="white">
<path d="M0 830H66V928H0V830Z"/>
</mask>
<path d="M0 830H66V928H0V830Z" fill="white"/>
<rect x="23.4167" y="869.417" width="19.1667" height="19.1667" rx="2.08333" fill="white" stroke="#9EA8BA" stroke-width="0.833333"/>
<path d="M0 830H66H0ZM66 929H0V927H66V929ZM0 928V830V928ZM66 830V928V830Z" fill="#E5E8EB" mask="url(#path-28-inside-10_4542_7059)"/>
</svg>
