<svg width="50" height="895" viewBox="0 0 50 895" fill="none" xmlns="http://www.w3.org/2000/svg">
<path d="M17.0005 30C17.0005 29.4477 17.4482 29 18.0005 29H22.0005C22.5528 29 23.0005 29.4477 23.0005 30V32C23.0005 32.5523 22.5528 33 22.0005 33H18.0005C17.4482 33 17.0005 32.5523 17.0005 32V30ZM27.0005 18C27.0005 17.4477 27.4482 17 28.0005 17H32.0005C32.5528 17 33.0005 17.4477 33.0005 18V20C33.0005 20.5523 32.5528 21 32.0005 21H28.0005C27.4482 21 27.0005 20.5523 27.0005 20V18ZM17.0005 18C17.0005 17.4477 17.4482 17 18.0005 17H22.0005C22.5528 17 23.0005 17.4477 23.0005 18V24C23.0005 24.5523 22.5528 25 22.0005 25H18.0005C17.4482 25 17.0005 24.5523 17.0005 24V18ZM27.0005 26C27.0005 25.4477 27.4482 25 28.0005 25H32.0005C32.5528 25 33.0005 25.4477 33.0005 26V32C33.0005 32.5523 32.5528 33 32.0005 33H28.0005C27.4482 33 27.0005 32.5523 27.0005 32V26Z" stroke="#DCEEFE" stroke-width="2" stroke-linecap="round" stroke-linejoin="round"/>
<rect y="66" width="50" height="50" rx="4" fill="#DCEEFE"/>
<path d="M24.9991 81C23.0596 81.0037 21.163 81.5713 19.5403 82.6337C17.9176 83.6962 16.639 85.2075 15.86 86.9838C15.0811 88.76 14.8354 90.7244 15.1531 92.6378C15.4707 94.5511 16.3379 96.3308 17.6491 97.76V97.76C18.5855 98.775 19.722 99.5851 20.987 100.139C22.252 100.693 23.6181 100.979 24.9991 100.979C26.3801 100.979 27.7461 100.693 29.0111 100.139C30.2761 99.5851 31.4127 98.775 32.3491 97.76V97.76C33.6602 96.3308 34.5274 94.5511 34.845 92.6378C35.1627 90.7244 34.9171 88.76 34.1381 86.9838C33.3592 85.2075 32.0805 83.6962 30.4578 82.6337C28.8352 81.5713 26.9386 81.0037 24.9991 81V81ZM24.9991 99C22.9275 98.9969 20.938 98.1903 19.4491 96.75C19.9011 95.6495 20.6701 94.7083 21.6583 94.0459C22.6465 93.3835 23.8094 93.0298 24.9991 93.0298C26.1888 93.0298 27.3516 93.3835 28.3398 94.0459C29.328 94.7083 30.097 95.6495 30.5491 96.75C29.0602 98.1903 27.0706 98.9969 24.9991 99ZM22.9991 89C22.9991 88.6044 23.1164 88.2178 23.3361 87.8889C23.5559 87.56 23.8683 87.3036 24.2337 87.1522C24.5992 87.0009 25.0013 86.9613 25.3893 87.0384C25.7772 87.1156 26.1336 87.3061 26.4133 87.5858C26.693 87.8655 26.8835 88.2219 26.9606 88.6098C27.0378 88.9978 26.9982 89.3999 26.8468 89.7654C26.6955 90.1308 26.4391 90.4432 26.1102 90.6629C25.7813 90.8827 25.3946 91 24.9991 91C24.4686 91 23.9599 90.7893 23.5849 90.4142C23.2098 90.0391 22.9991 89.5304 22.9991 89ZM31.9091 95C31.0156 93.4718 29.6405 92.283 27.9991 91.62C28.5082 91.0427 28.84 90.3307 28.9545 89.5694C29.0691 88.8082 28.9615 88.0301 28.6448 87.3285C28.3281 86.6269 27.8157 86.0316 27.169 85.614C26.5223 85.1964 25.7689 84.9742 24.9991 84.9742C24.2293 84.9742 23.4758 85.1964 22.8292 85.614C22.1825 86.0316 21.67 86.6269 21.3533 87.3285C21.0366 88.0301 20.9291 88.8082 21.0436 89.5694C21.1581 90.3307 21.4899 91.0427 21.9991 91.62C20.3577 92.283 18.9825 93.4718 18.0891 95C17.377 93.7871 17.0008 92.4065 16.9991 91C16.9991 88.8783 17.8419 86.8434 19.3422 85.3431C20.8425 83.8429 22.8773 83 24.9991 83C27.1208 83 29.1556 83.8429 30.6559 85.3431C32.1562 86.8434 32.9991 88.8783 32.9991 91C32.9974 92.4065 32.6211 93.7871 31.9091 95V95Z" fill="#424C5D"/>
<path d="M28.7105 152.71C29.6909 151.939 30.4065 150.881 30.7577 149.684C31.109 148.487 31.0784 147.21 30.6703 146.032C30.2621 144.853 29.4967 143.831 28.4806 143.107C27.4644 142.383 26.2479 141.995 25.0005 141.995C23.753 141.995 22.5366 142.383 21.5204 143.107C20.5042 143.831 19.7388 144.853 19.3307 146.032C18.9226 147.21 18.892 148.487 19.2432 149.684C19.5945 150.881 20.3101 151.939 21.2905 152.71C19.6106 153.383 18.1448 154.499 17.0494 155.94C15.954 157.381 15.27 159.091 15.0705 160.89C15.056 161.021 15.0676 161.154 15.1045 161.281C15.1414 161.408 15.203 161.526 15.2856 161.629C15.4525 161.838 15.6953 161.971 15.9605 162C16.2257 162.029 16.4916 161.952 16.6998 161.785C16.908 161.618 17.0413 161.375 17.0705 161.11C17.2901 159.155 18.2222 157.35 19.6887 156.039C21.1552 154.728 23.0534 154.003 25.0205 154.003C26.9876 154.003 28.8857 154.728 30.3523 156.039C31.8188 157.35 32.7509 159.155 32.9705 161.11C32.9977 161.356 33.1149 161.583 33.2996 161.747C33.4843 161.911 33.7233 162.002 33.9705 162H34.0805C34.3426 161.97 34.5822 161.837 34.747 161.631C34.9119 161.425 34.9886 161.162 34.9605 160.9C34.76 159.096 34.0724 157.381 32.9713 155.938C31.8703 154.496 30.3974 153.38 28.7105 152.71V152.71ZM25.0005 152C24.2094 152 23.436 151.766 22.7782 151.326C22.1204 150.886 21.6077 150.262 21.305 149.531C21.0022 148.8 20.923 147.996 21.0773 147.22C21.2317 146.444 21.6126 145.731 22.1721 145.172C22.7315 144.612 23.4442 144.231 24.2201 144.077C24.996 143.923 25.8003 144.002 26.5312 144.305C27.2621 144.607 27.8868 145.12 28.3264 145.778C28.7659 146.436 29.0005 147.209 29.0005 148C29.0005 149.061 28.5791 150.078 27.8289 150.829C27.0788 151.579 26.0614 152 25.0005 152Z" fill="#DCEEFE"/>
<path d="M33.4898 203.52C33.4841 203.494 33.4841 203.466 33.4898 203.44C33.485 203.417 33.485 203.393 33.4898 203.37V203.28L33.4298 203.13C33.4054 203.089 33.3751 203.052 33.3398 203.02L33.2498 202.94H33.1998L29.2598 200.45L25.5398 198.15C25.4538 198.082 25.3553 198.031 25.2498 198H25.1698C25.0804 197.985 24.9892 197.985 24.8998 198H24.7998C24.6837 198.026 24.5723 198.07 24.4698 198.13L16.9998 202.78L16.9098 202.85L16.8198 202.93L16.7198 203L16.6698 203.06L16.6098 203.21V203.3V203.36C16.6001 203.426 16.6001 203.494 16.6098 203.56V212.29C16.6095 212.46 16.6525 212.627 16.7347 212.776C16.8169 212.925 16.9357 213.05 17.0798 213.14L24.5798 217.78L24.7298 217.84H24.8098C24.979 217.894 25.1606 217.894 25.3298 217.84H25.4098L25.5598 217.78L32.9998 213.21C33.1439 213.12 33.2627 212.995 33.345 212.846C33.4272 212.697 33.4702 212.53 33.4698 212.36V203.63C33.4698 203.63 33.4898 203.56 33.4898 203.52ZM24.9998 200.17L26.7798 201.27L21.1898 204.73L19.3998 203.63L24.9998 200.17ZM23.9998 215.17L18.4998 211.81V205.42L23.9998 208.82V215.17ZM24.9998 207.06L23.0898 205.91L28.6798 202.44L30.5998 203.63L24.9998 207.06ZM31.4998 211.78L25.9998 215.2V208.82L31.4998 205.42V211.78Z" fill="#DCEEFE"/>
<path d="M29 266H21C20.7348 266 20.4804 266.105 20.2929 266.293C20.1054 266.48 20 266.735 20 267C20 267.265 20.1054 267.52 20.2929 267.707C20.4804 267.895 20.7348 268 21 268H29C29.2652 268 29.5196 267.895 29.7071 267.707C29.8946 267.52 30 267.265 30 267C30 266.735 29.8946 266.48 29.7071 266.293C29.5196 266.105 29.2652 266 29 266ZM29 262H23C22.7348 262 22.4804 262.105 22.2929 262.293C22.1054 262.48 22 262.735 22 263C22 263.265 22.1054 263.52 22.2929 263.707C22.4804 263.895 22.7348 264 23 264H29C29.2652 264 29.5196 263.895 29.7071 263.707C29.8946 263.52 30 263.265 30 263C30 262.735 29.8946 262.48 29.7071 262.293C29.5196 262.105 29.2652 262 29 262ZM33 256H30V255C30 254.735 29.8946 254.48 29.7071 254.293C29.5196 254.105 29.2652 254 29 254C28.7348 254 28.4804 254.105 28.2929 254.293C28.1054 254.48 28 254.735 28 255V256H26V255C26 254.735 25.8946 254.48 25.7071 254.293C25.5196 254.105 25.2652 254 25 254C24.7348 254 24.4804 254.105 24.2929 254.293C24.1054 254.48 24 254.735 24 255V256H22V255C22 254.735 21.8946 254.48 21.7071 254.293C21.5196 254.105 21.2652 254 21 254C20.7348 254 20.4804 254.105 20.2929 254.293C20.1054 254.48 20 254.735 20 255V256H17C16.7348 256 16.4804 256.105 16.2929 256.293C16.1054 256.48 16 256.735 16 257V271C16 271.796 16.3161 272.559 16.8787 273.121C17.4413 273.684 18.2044 274 19 274H31C31.7956 274 32.5587 273.684 33.1213 273.121C33.6839 272.559 34 271.796 34 271V257C34 256.735 33.8946 256.48 33.7071 256.293C33.5196 256.105 33.2652 256 33 256V256ZM32 271C32 271.265 31.8946 271.52 31.7071 271.707C31.5196 271.895 31.2652 272 31 272H19C18.7348 272 18.4804 271.895 18.2929 271.707C18.1054 271.52 18 271.265 18 271V258H20V259C20 259.265 20.1054 259.52 20.2929 259.707C20.4804 259.895 20.7348 260 21 260C21.2652 260 21.5196 259.895 21.7071 259.707C21.8946 259.52 22 259.265 22 259V258H24V259C24 259.265 24.1054 259.52 24.2929 259.707C24.4804 259.895 24.7348 260 25 260C25.2652 260 25.5196 259.895 25.7071 259.707C25.8946 259.52 26 259.265 26 259V258H28V259C28 259.265 28.1054 259.52 28.2929 259.707C28.4804 259.895 28.7348 260 29 260C29.2652 260 29.5196 259.895 29.7071 259.707C29.8946 259.52 30 259.265 30 259V258H32V271Z" fill="#DCEEFE"/>
<path d="M32 320H25V313C25 312.4 24.6 312 24 312C19 312 15 316 15 321C15 326 19 330 24 330C29 330 33 326 33 321C33 320.4 32.6 320 32 320ZM25 327.9C21.2 328.5 17.6 325.8 17.1 322C16.5 318.2 19.2 314.6 23 314.1V321C23 321.6 23.4 322 24 322H30.9C30.5 325.1 28.1 327.5 25 327.9ZM28 310C27.4 310 27 310.4 27 311V317C27 317.6 27.4 318 28 318H34C34.6 318 35 317.6 35 317C35 313.1 31.9 310 28 310ZM29 316V312.1C31 312.5 32.5 314 32.9 316H29Z" fill="#DCEEFE"/>
<path d="M34 378H33V367C33 366.735 32.8946 366.48 32.7071 366.293C32.5196 366.105 32.2652 366 32 366H18C17.7348 366 17.4804 366.105 17.2929 366.293C17.1054 366.48 17 366.735 17 367V378H16C15.7348 378 15.4804 378.105 15.2929 378.293C15.1054 378.48 15 378.735 15 379C15 379.265 15.1054 379.52 15.2929 379.707C15.4804 379.895 15.7348 380 16 380H24V381.15L19.45 384.15C19.2633 384.266 19.1199 384.439 19.0418 384.644C18.9637 384.85 18.9552 385.075 19.0178 385.285C19.0804 385.496 19.2104 385.68 19.3879 385.809C19.5654 385.938 19.7805 386.005 20 386C20.1966 386.002 20.389 385.943 20.55 385.83L24 383.55V385C24 385.265 24.1054 385.52 24.2929 385.707C24.4804 385.895 24.7348 386 25 386C25.2652 386 25.5196 385.895 25.7071 385.707C25.8946 385.52 26 385.265 26 385V383.55L29.45 385.83C29.611 385.943 29.8034 386.002 30 386C30.2136 385.998 30.4212 385.928 30.5921 385.8C30.7631 385.672 30.8885 385.492 30.95 385.288C31.0115 385.083 31.0058 384.864 30.9338 384.663C30.8619 384.462 30.7273 384.289 30.55 384.17L26 381.17V380H34C34.2652 380 34.5196 379.895 34.7071 379.707C34.8946 379.52 35 379.265 35 379C35 378.735 34.8946 378.48 34.7071 378.293C34.5196 378.105 34.2652 378 34 378ZM31 378H19V368H31V378ZM22 376C22.1647 375.999 22.3267 375.958 22.4715 375.879C22.6162 375.801 22.7394 375.688 22.83 375.55L24.16 373.55L25.29 374.69C25.3949 374.796 25.5221 374.876 25.6622 374.927C25.8023 374.977 25.9519 374.995 26.1 374.98C26.2474 374.964 26.3894 374.915 26.5157 374.837C26.6419 374.759 26.7493 374.654 26.83 374.53L28.83 371.53C28.9478 371.31 28.9793 371.055 28.9185 370.813C28.8577 370.572 28.7089 370.361 28.5012 370.224C28.2935 370.086 28.0419 370.031 27.7956 370.069C27.5494 370.107 27.3263 370.236 27.17 370.43L25.84 372.43L24.71 371.29C24.6051 371.184 24.4779 371.104 24.3378 371.053C24.1977 371.003 24.0481 370.985 23.9 371C23.7526 371.016 23.6106 371.065 23.4843 371.143C23.3581 371.221 23.2507 371.326 23.17 371.45L21.17 374.45C21.0253 374.67 20.9735 374.939 21.0259 375.198C21.0784 375.456 21.2308 375.683 21.45 375.83C21.611 375.943 21.8034 376.002 22 376V376Z" fill="#DCEEFE"/>
<path d="M32.8999 432.66C32.7396 432.477 32.6512 432.243 32.6512 432C32.6512 431.757 32.7396 431.522 32.8999 431.34L34.1799 429.9C34.3209 429.743 34.4085 429.545 34.4301 429.334C34.4516 429.124 34.4061 428.913 34.2999 428.73L32.2999 425.27C32.1948 425.087 32.0348 424.943 31.8426 424.857C31.6505 424.77 31.4361 424.747 31.2299 424.79L29.3499 425.17C29.1107 425.219 28.8616 425.179 28.6498 425.058C28.4379 424.936 28.2779 424.741 28.1999 424.51L27.5899 422.68C27.5228 422.481 27.395 422.309 27.2245 422.187C27.0541 422.065 26.8495 421.999 26.6399 422H22.6399C22.4218 421.989 22.206 422.049 22.0255 422.172C21.8449 422.294 21.7095 422.473 21.6399 422.68L21.0799 424.51C21.0019 424.741 20.8419 424.936 20.63 425.058C20.4181 425.179 20.1691 425.219 19.9299 425.17L17.9999 424.79C17.8044 424.762 17.6052 424.793 17.4272 424.879C17.2493 424.964 17.1006 425.1 16.9999 425.27L14.9999 428.73C14.8911 428.911 14.8421 429.121 14.8601 429.331C14.878 429.541 14.962 429.74 15.0999 429.9L16.3699 431.34C16.5302 431.522 16.6186 431.757 16.6186 432C16.6186 432.243 16.5302 432.477 16.3699 432.66L15.0999 434.1C14.962 434.259 14.878 434.459 14.8601 434.669C14.8421 434.879 14.8911 435.089 14.9999 435.27L16.9999 438.73C17.105 438.912 17.265 439.057 17.4571 439.143C17.6493 439.229 17.8637 439.253 18.0699 439.21L19.9499 438.83C20.1891 438.78 20.4381 438.82 20.65 438.942C20.8619 439.063 21.0219 439.258 21.0999 439.49L21.7099 441.32C21.7795 441.527 21.9149 441.705 22.0955 441.828C22.276 441.951 22.4918 442.011 22.7099 442H26.7099C26.9195 442 27.1241 441.935 27.2945 441.813C27.465 441.691 27.5928 441.519 27.6599 441.32L28.2699 439.49C28.3479 439.258 28.5079 439.063 28.7198 438.942C28.9316 438.82 29.1807 438.78 29.4199 438.83L31.2999 439.21C31.5061 439.253 31.7205 439.229 31.9126 439.143C32.1048 439.057 32.2648 438.912 32.3699 438.73L34.3699 435.27C34.4761 435.087 34.5216 434.876 34.5001 434.665C34.4785 434.455 34.3909 434.257 34.2499 434.1L32.8999 432.66ZM31.4099 434L32.2099 434.9L30.9299 437.12L29.7499 436.88C29.0297 436.733 28.2805 436.855 27.6445 437.224C27.0085 437.592 26.53 438.182 26.2999 438.88L25.9199 440H23.3599L22.9999 438.86C22.7698 438.162 22.2913 437.572 21.6553 437.204C21.0193 436.835 20.2701 436.713 19.5499 436.86L18.3699 437.1L17.0699 434.89L17.8699 433.99C18.3619 433.44 18.6338 432.728 18.6338 431.99C18.6338 431.252 18.3619 430.54 17.8699 429.99L17.0699 429.09L18.3499 426.89L19.5299 427.13C20.2501 427.277 20.9993 427.155 21.6353 426.786C22.2713 426.417 22.7498 425.828 22.9799 425.13L23.3599 424H25.9199L26.2999 425.14C26.53 425.838 27.0085 426.427 27.6445 426.796C28.2805 427.165 29.0297 427.287 29.7499 427.14L30.9299 426.9L32.2099 429.12L31.4099 430.02C30.9235 430.569 30.6549 431.277 30.6549 432.01C30.6549 432.743 30.9235 433.451 31.4099 434V434ZM24.6399 428C23.8488 428 23.0754 428.234 22.4176 428.674C21.7598 429.114 21.2471 429.738 20.9444 430.469C20.6416 431.2 20.5624 432.004 20.7168 432.78C20.8711 433.556 21.2521 434.269 21.8115 434.828C22.3709 435.388 23.0836 435.769 23.8595 435.923C24.6355 436.077 25.4397 435.998 26.1706 435.695C26.9015 435.393 27.5262 434.88 27.9658 434.222C28.4053 433.564 28.6399 432.791 28.6399 432C28.6399 430.939 28.2185 429.922 27.4683 429.171C26.7182 428.421 25.7008 428 24.6399 428V428ZM24.6399 434C24.2443 434 23.8577 433.883 23.5288 433.663C23.1999 433.443 22.9435 433.131 22.7921 432.765C22.6408 432.4 22.6012 431.998 22.6783 431.61C22.7555 431.222 22.946 430.865 23.2257 430.586C23.5054 430.306 23.8618 430.115 24.2497 430.038C24.6377 429.961 25.0398 430.001 25.4053 430.152C25.7707 430.304 26.0831 430.56 26.3028 430.889C26.5226 431.218 26.6399 431.604 26.6399 432C26.6399 432.53 26.4292 433.039 26.0541 433.414C25.679 433.789 25.1703 434 24.6399 434Z" fill="#DCEEFE"/>
</svg>
